# xmcd
#
# Track frame offsets: 
#        150
#        11275
#        23435
#        36637
#        52717
#        71542
#        84232
#        97830
#        110687
#        123572
#        142097
#        154060
#
# Disc length: 2254 seconds
#
# Revision: 0
# Processed by: cddbd v1.5.2PL0 Copyright (c) Steve Scherf et al.
# Submitted via: ExactAudioCopy v0.99pb3
#
DISCID=8f08cc0c
DTITLE=Jody Nix and the Texas Cowboys - Music That I Love
DYEAR=1900
DGENRE=Western Swing
TTITLE0=What A Way To Live
TTITLE1=My Confession
TTITLE2=The 24th Hour
TTITLE3=Walk Me to the Door
TTITLE4=Before I Could Change Her Mind
TTITLE5=Jacques Pierre Bardeaux
TTITLE6=Close Up The Honky Tonks
TTITLE7=If He's Moving In I'm Moving Out
TTITLE8=Tater Pie
TTITLE9=Welcome To My World
TTITLE10=Jessie Polka
TTITLE11=Pick Me Up On Your Way Down
EXTD=
EXTT0=
EXTT1=
EXTT2=
EXTT3=
EXTT4=
EXTT5=
EXTT6=
EXTT7=
EXTT8=
EXTT9=
EXTT10=
EXTT11=
PLAYORDER=
